<?xml version="1.0" encoding="utf-8"?>
<!-- Generator: Adobe Illustrator 28.2.0, SVG Export Plug-In . SVG Version: 6.00 Build 0)  -->
<svg version="1.1" id="Camada_1" xmlns="http://www.w3.org/2000/svg" xmlns:xlink="http://www.w3.org/1999/xlink" x="0px" y="0px"
	 viewBox="0 0 3000 3427" style="enable-background:new 0 0 3000 3427;" xml:space="preserve">
<style type="text/css">
	.st0{fill:#FFFFFF;}
</style>
<g>
	<g>
		<path class="st0" d="M1928.8,46.4c-2.8-23.5-11.5-24.7-17.3-14.3c-33.3,59.5-90.8,115.1-169.9,144
			c-204.9,70.9-228.5,85.5-313.3,150.3c-56.8,45.4-89.9,62.8-107.6,69.5c-7.4,2.8-14.9-4.4-12.1-11.9c19.6-51.7,73.1-107,142.1-157
			C1585.8,129,1595.7,51.4,1589.4,7.5c-1.2-8.2-12.2-10.3-16.2-3c-26.8,48.3-76.6,75.9-137.5,103
			c-237.2,105.7-248.1,214.8-318.3,253.3c-4.1,2.2-9.7,3.2-13.2,0.2c-13.5-11.3-47.8-14.6-84.4-1.8c-38.2,13.3-60.6,70.3-55.8,82.4
			c3.6,8.9,30.9,4.8,61.2,21.1c5.4,2.9,3.2,11.1-2.9,10.9c-84.6-2.7-137.7,25.1-152.1,48.9c-3.9,6.4-14.3,2-14.3-5.5
			c-0.1-21.8,10.7-43.8,26.2-58.1c4.1-3.8,2-10.5-3.5-11.2c-81.3-10.8-102.4,22.4-104.7,53.6c-0.2,3.2-2.3,6-5.3,7.2
			c-143,56.9-73.7,162.9-73.7,162.9s41.7,65.5,85.9,47.9c32.3-12.9,25.1-55,114.7-53.3c71.3,1.3,53,39.8,165.6-23.5
			c7.8-4.4,16.2,4.7,11.2,12.1c-15.3,22.6-42.8,59.2-101.7,48.8c-11.4-2-21.9,7.4-25.4,18.5c-7.6,24.2-26,63.7-66.7,75.6
			c-40.3,11.8-83.9-23.4-108.2-47.8c-9.5-9.6-24.9-9.1-34.2,0.7c-24.1,25.2-66.4,43.9-107.9,61.1c-52.7,21.8-126.1-47.9-126.1-47.9
			S470,733.1,416,776.8c-36.1,30.8-55.9,61.5-25.7,97.2c7.8,9.2,2.5,23.4-9.3,25.8c-54.5,11-79.5,11.1-117.9-10
			c-31.5-17.4-55-51.3-41-80.2c25.4-52.4,28.3-76.4-8.7-108.1c-22.6-19.4-35.6-42.4-42-67.9C153.2,561.2,198,472,273.6,462.2
			c56.2-7.3,80.6,5.2,104.5,15.7c10.6,4.6,20.1-8.5,12.3-17.1c-26-28.8-60.2-45.2-113.2-40.3c-100.6,9.3-147.4,104-143.8,177.6
			c1.6,33,1.7,81.9,51.7,123.6c9.1,7.6,24.9,26.3,18.6,45.3c-8.5,25.5-66.3,88.9,40.4,157.6c28.5,18.3,68.7,15.4,106.5,11.5
			c9-0.9,16.3,7.2,16,16.2c-0.9,22.9,4.6,61.4,51.9,64.6c10.9,0.7,17,9.2,22.1,12.5c4.9,3.1,5.5,10,1.4,14.2
			c-5.2,5.4-9.4,14-2.4,25.6c22.6,37.2,43,60.7,64.5,72c17.2,9,34.7-11.3,23.1-26.9c-19.9-26.8-33.5-49.5-25.4-66.1
			c7-14.5,44.4-34.7,73.5,2.4c22,28.2,26.3,43.7,75.2,62.2c17.6,6.6,42-3.2,25.3-26.4c-13.3-18.3-36.4-43.4-37.7-63.4
			c-0.8-11.9,11.9-20.2,22.3-14.5c15.2,8.2,36.4,13.1,62.9,2.4c113.9-46.1,155.2-143,286.9-139c55.9,1.7,83.2,88.1,24.2,102.6
			c-59,14.5-142.2,53.3-192.3,129.3c-50.1,76-47.8,96-122,130.9c-46.8,22-77.6-11.3-80.1-44.4c-1.2-16.1-26.7-15.8-32.3-0.6
			c-51.5,139.3,69.6,143.6,69.6,143.6c-4.8,59,37.9,110.1,67.1,135c65.2,55.6,141.5,44.3,185.1,28.9c11.1-3.9,9.4-20-2.3-21.5
			c-75.1-9.3-102.5-55.8-111.2-88.5c-3.1-11.7,10.2-21,19.9-13.7c108.1,80.7,180.7,26,208.9-8c8.5-10.2,0.3-25.5-13-24.2
			c-102,10.2-131.4-41.3-122.6-84.8c9.7-47.7,47.9-94.3,130.1-129.3c108.3-46.1,148.1-17,233.5-36.4
			c153.5-34.7,233.1-120.3,260.1-164.4c6.4-10.4-4.1-22.3-15.6-18.2c-54.5,19.3-115.8,14.5-150.8,4.6c-9.6-2.7-9.2-16.3,0.5-18.6
			c115.5-26.7,203.5-87.5,224.1-130.3c4.5-9.3-4.3-19.5-14.2-16.5c-41.5,12.7-84.1,17.7-109.2,15.9c-13.9-1-19.4-18.3-8.8-27.3
			c75.1-63.7,92.3-135.4,91.1-176.4c-0.6-19.4-8.4-20.4-14.3-13.8c-13.4,15.1-38.4,34.8-83.9,49c-71.1,22.2-102.1,6.9-121.8-7.3
			c-15.2-10.9-10.3-18.4-0.5-18c37.4,1.6,95.6,4.7,155.6-61.4c87.2-96,123.2-153,235.2-200.6C1891,235.1,1938.5,128.3,1928.8,46.4z
			 M484.1,894.9c-14.1,0-22.6-0.9-12.1-14.9c4.1-5.4,18.8-15.3,25.9-8.7C510,882.6,498.3,894.9,484.1,894.9z"/>
		<path class="st0" d="M2346.4,2063.4c-10.9,2.5-16.8-7.8-8.3-15.1c85.2-74,299.8-174.6,426.2-38.4c5.8,6.2,0.6,16.3-7.8,15
			c-17.3-2.8-40.5-5.1-59.4-1.8c-12.4,2.2-12.7,19.9-0.3,22.4c67.1,13.4,187.7,38.5,244.3,151.3c5,10-1.3,20.8-11.4,16.1
			c-15.9-7.3-34.9-14.4-51.8-16.2c-8.2-0.9-12.5,9.5-6.2,14.8c49,41.2,167.4,173.2,60.9,373.4c-5.6,10.6-17.5,7.3-17.6-4.7
			C2913.6,2336.2,2708.8,1980.4,2346.4,2063.4z"/>
		<path class="st0" d="M71.8,1839.2c41.2-32.1,61.2-7.7,88.5-51.1c36.9-58.7,15.2-74.9-11.5-65.3c-70.3,25.5-91.5,72.7-95.5,107
			C51.7,1842.8,59.8,1848.5,71.8,1839.2z"/>
		<path class="st0" d="M2982.5,2946.7c-3.8-4.4-6.1-10-6.4-15.8c-1.7-38.5-14.3-47.6-14.3-47.6c-35.6-51.7-118-11.3-118-11.3
			c-17.4-7.8-26.2-24.8-30.5-40.9c-4.7-17.4-4.4-35.8,0-53.2c31.2-124.2,29.8-182,23.2-244.5c-20.8-198.4-171.3-400-379.8-416.2
			c-145.8-11.3-213,47-240.2,83c-5.2,6.8,2,16,10,12.9c55-21.9,130.8-9.4,171.9,2.9c4.6,1.4,3.9,8.2-0.9,8.5
			c-102.7,7.7-159.8,81.7-190.5,129.9c-135.8,212.9-308.8,365.4-449.7,391.5c-320,59.4-460.4-133.9-486.1-281.2
			c-57.5-330.9,206.5-440,321.2-512.7c322.7-204.6,423.5-258.7,513.9-392.7c128.5-190.3,133.3-392.7,78-544.2
			c-77.6-212.3-199.4-279.2-256.6-294.3c-11.6-3.1-12.6-10.7-2.5-17.2c18.1-11.5,37.3-17.6,57.9-8.6
			c106.7,46.9,96.1,10.6,139.8,11.3c59.6,0.9,116,23.5,153.4,42.7c11.5,5.9,23.1-7.7,15.6-18.2c-189.2-262.5-423.1-194-485.4-162.6
			c-5.5,2.8-11.3-3.8-8.7-9.4c22-47.2,63.6-78,153.9-102.2c111.5-20.4,167.2-90.7,193.2-140c6.7-12.7-8.1-25.8-20-17.8
			c-48.8,33.1-113.4,56.3-187,54.4c-166.4-4.5-260,54-319.2,97.6c-16.2,11.9-22.8,33.1-16,52c27.3,75.4,3.5,133.3-16.1,168.9
			c-8.1,14.7,6.7,31.4,22.3,25.2c32.1-12.8,71.2-30.9,100.5-52.6c9-6.7,21.1,2.3,17.7,12.9c-19.6,60.9-84.6,134.5-132.4,185.6
			c-11.4,12.2,0.7,31.5,16.6,26.6c91.2-28.1,99-63.3,121.9-92.9c4.9-6.4,14.9-0.5,11.8,6.9c-37.3,87.5-156.9,184.6-218.5,230.7
			c-11.3,8.5-7.4,28.6,6.7,28.9c93.1,2.1,226.2,104.3,171.9,261.5c-55.8,161.2-195.6,217.5-290.9,255.8
			c-475.2,190.7-599.7,536-622.5,622.6l-6.1,15.8c-5.6,12.9-20.9,15.8-33.1,8.7c-49.8-29-92.1-56-105.8-86
			c-3.2-7.1-1.7-15.5,3.5-21.3c11.1-12.4,15.5-19,23.7-49.8c4.5-16.7,5.6-37.6-1-53.5l-31.4-72.5c-6.1-14.8-20.8-24.2-36.8-23.7
			l-6,0.2c-6.4-0.3-11.5-5.5-11.5-12c-0.2-88.3-38.5-158.2-99-201.6c-137.4-91.3-215.8-28.3-248.1-5.7c-27.5,19.2-27.5,41.4-12.5,59
			c4.7,5.5,6.1,13.1,3,19.6c-13.7,28.3-45.7,36.9-55.7,42c-20.9,10.6-42.2,69.9-17.8,162.4c46.5,176.4,204.9,164.8,278.6,139.6
			c91.6-31.3,113.9-95.1,127.3-142.9c3.6-12.8,23.7-11.2,22.2,6.7c-12.8,154.8-152.6,205.9-278,187.9
			C201,2140.7,162.4,2077,153.3,2045c-1.7-6.1-8.4-9.3-14.2-6.7c-16.5,7.5-24.6,4-46.1-6.8c-42.4-43.6-21.3-83.2-4.1-116.6
			c4.8-9.4-6.3-18.9-14.9-12.6c-38.7,28.3-75.8,58.1-74,112.2c3.2,96.3,58.5,128.1,94.6,128.9c7.1,0.2,13.3,4.9,14.8,11.9
			c15.6,68.3,70.5,79.5,109.5,82c14.8,1,28.7,7.6,38.5,18.7c12.3,13.9,21.4,25.1,35.1,24.5c10.4-0.4-16.3,36.7-34.1,44.6
			c-37,16.6-59.3,9.5-74.5-8.5c-20.3-23.9-27.1-1.6-15.8,25.1c22.9,54,146.2,143,221.4-8.9c3.3-6.7,9.8-11.2,17.2-12
			c28.5-3.2,57.8-11.8,86.3-21.1c44.4-15.4,88.1,4,119.6,22.6c115.1,76.2,138.4,103.6,153.5,175.3c14.7,69.6,31.1,156,79.6,251.8
			c184.2,278.8,412.1,298.2,458.2,304.2c7.8,1,14.1,2.2,19.2,3.5c3.8,1,3.8,6.3,0,7.4c-188.8,53.5-325.2-21.1-410.8-89.1
			c-13-10.3-29.7,8.4-6.3,46.6c202,330.9,521.9,249.6,600.9,223.2c7.7-2.6,14.9,5.4,11.4,12.8c-27.6,59.1-116.5,106.2-216.3,138
			c-15.2,4.9-12.7,27.3,3.2,28.4c357.2,26.7,493-183.6,537.7-259.9c5.9-10.2-3.8-22.8-15-19c-150.3,51.4-273.1,10.7-325.6-13.1
			c-5.9-2.7-4-11.5,2.5-11.5c96,0.2,213.8-5.3,260.9-17.7c233.9-23,501.8-219.4,639.2-442.4c1.7-2.8,40.4-88.1,61.4-94.5
			c21-6.5,151.1-5.7,163.2,169.7c6.5,103.9-25.7,131.8-76.9,158.4c-10.9,5.6-23.9,4.7-34.1-2.1c-22.6-15-58-27.3-89.4-3.6
			c-35.8,27-55.1,48.1-25,78.2c4.9,4.9,4.6,13-0.8,17.3c-24.8,19.6-40.8,63.1-6.5,116.3c27.8,33.9,40.5,41.4,71.9,49.3
			c10.3,2.6,18.3-9.1,12.1-17.7c-8.1-11.2-14.1-21-17.7-38.8c-5.8-29,13.1-50.8,48.5-53.9c7.6-0.7,14-6.1,15.5-13.6
			c3.8-19.4,11.1-37,61.9-40.9c6.8-0.5,12,6.2,9.6,12.6c-13.7,36.4-26.4,115.6,52.9,170.1c25.9,17.8,72.1,12.5,97.3,3.9
			c12.5-4.3,11.7-24.2-1.5-24.9c-33.5-1.6-45.6-18.5-53.1-36.5c-2.4-5.9,0-13.6,5.1-17.5c28.3-21.4,31.6-57.5,31-77.1
			c-0.2-8,4.9-15.1,12.5-17.7c15.2-5.2,40-15.8,58.6-34c5.9-5.8,15.5-5.2,20.9,1.1c19.6,23,39.7,22.2,54.5,20.3
			c17.1-2.2,33.1,8.6,36.6,25.5c7.7,37.4-4.4,65.3-21.7,92.3c-8.1,12.7,8,27,19.6,17.4C3031.7,3020.5,3000.7,2967.9,2982.5,2946.7z"
			/>
	</g>
	<path class="st0" d="M2147.1,808.7c-3-2.5-1.8-7.3,2-8.3c46.7-11.6,87.4,27.6,195.5,106c16.3,11.8,52.9,37.4,81.4-1.5
		c11.4-15.5,21.7-6.4,30,10.1c11.7,23,1.9,61.1-40.5,99.3c-17.5,15.8-50.9,17.1-70.5,17.7c-5.3,0.2-8.3,6.2-5.2,10.5
		c10.3,14.3,25.2,47.7,37,125.8c14.5,71.5,11.2,116.4,75.8,116.4c14.9,0,25-7.4,33.5-21.1c3.2-5.1,11.1-3.6,11.9,2.4
		c5.8,39.6,6.1,121.7-72.1,155.7c-22.1,9.6-34.5,6.6-48.4-2.8c-8.2-5.5-19.4-1.9-23.3,7.1c-10.5,24.7-27.5,70.3-32,116.2
		c-3.7,37.3-1.8,58.7,0.5,70.4c1.7,8.3,6.7,15.6,14,19.9c15,8.9,46.3,20.2,93.2-13.7c6.9-5,16.4,0.6,15.6,9.1
		c-2.2,22.1-11,46.3-66.9,101.6c-90.1,89.1-146.5,37.5-164.6,14.9c-3.7-4.7-11.1-5.6-15.1-1.2c-40.9,45.6-84,88.1-102.7,125.7
		c-17,33.9,25.3,57.9,55.8,32.7c13.1-10.9,30.8-3.2,11.5,17c-77.3,80.7-225.5,187.9-294.5,266.7c-6.1,7-1.9,15.8,6.5,11.8
		c32.3-15.4,96.4-21.5,183.8-9.8c3.3,0.4,4.7,4.4,2.3,6.8c-61.5,62.4-290.6,299.3-494.9,472.1c-14.1,11.9-24.9,1.7-19.5-11.1
		c29-69.9,84.2-193.7,157.5-295.6c9.8-13.7,4-24.9-12.8-25c-84.2-0.4-117.1,1.9-180.4,14c-14.4,2.8-25.1-12.9-17.4-25.3
		c51.2-82.3,147-219.1,290.1-342c172.1-147.9,338.9-285.7,419.4-430.9c55.6-100.3,86.7-211.5,89.7-330.3
		C2295.8,1110.5,2253,897.5,2147.1,808.7z"/>
</g>
</svg>
